# xmcd
#
# Track frame offsets:
#	150
#	20410
#	54732
#	71032
#	96675
#	117312
#	148305
#	174000
#	186967
#	199995
#	212197
#	224475
#	243102
#	260485
#	274972
#
# Disc length: 4006 seconds
#
# Revision: 0
# Processed by: cddbd v1.5.1PL2 Copyright (c) Steve Scherf et al.
# Submitted via: audiograbber 1.83.01
#
DISCID=f70fa40f
DTITLE=THE SOUND OF KLIK Vol. 4 - ONE MORE FOR THE ROAD
DYEAR=1900
DGENRE=
TTITLE0=Summer wine - BRYN HAWORTH
TTITLE1=Winter wine - CARAVAN
TTITLE2=Sweet wine - GINGER BAKER'S AIR FORCE
TTITLE3=Whiskyin the jar - THIN LIZZY
TTITLE4=Champagne jam - ATLANTA RHYTHM SECSION
TTITLE5=Drunken hearted boy - THE ALLMAN BROTHERS BAND
TTITLE6=Whiskey, whiskey - TIM HARDIN
TTITLE7=Milwaukee famous - ROD STEWART
TTITLE8=Tonight the bottle let me down - THE FLYING BURRITO BROTHERS
TTITLE9=Lost highway - HANK WILLIAMS
TTITLE10=I'll find it where i can - JERRY LEE LEWIS
TTITLE11=Little red bottle - MERTIN STEPHENSON &THE DAINTEES
TTITLE12=Pink champagne - G. FAME, BLUE FLAMES
TTITLE13=Gin house - AMEN CORNER
TTITLE14=One for me baby - BILLIE HOLIDAY
EXTD=
EXTT0=
EXTT1=
EXTT2=
EXTT3=
EXTT4=
EXTT5=
EXTT6=
EXTT7=
EXTT8=
EXTT9=
EXTT10=
EXTT11=
EXTT12=
EXTT13=
EXTT14=
PLAYORDER=
